<?xml version="1.0" standalone="no"?>
<!DOCTYPE svg PUBLIC "-//W3C//DTD SVG 20010904//EN"
 "http://www.w3.org/TR/2001/REC-SVG-20010904/DTD/svg10.dtd">
<svg version="1.0" xmlns="http://www.w3.org/2000/svg"
 width="387.000000pt" height="257.000000pt" viewBox="0 0 387.000000 257.000000"
 preserveAspectRatio="xMidYMid meet">
<metadata>
Created by potrace 1.16, written by Peter Selinger 2001-2019
</metadata>
<g transform="translate(0.000000,257.000000) scale(0.100000,-0.100000)"
fill="#000000" stroke="none">
<path d="M910 2490 c-78 -84 -134 -348 -155 -731 l-7 -117 -67 -31 c-92 -42
-113 -41 -168 13 -41 41 -51 45 -108 51 -52 6 -76 3 -132 -15 -126 -42 -157
-83 -152 -199 2 -43 -3 -87 -15 -125 -13 -41 -16 -73 -12 -107 16 -116 138
-706 154 -743 22 -50 77 -99 128 -116 77 -26 237 11 297 68 33 31 67 93 66
119 0 12 -3 10 -8 -7 -13 -41 -38 -84 -63 -107 -50 -47 -155 -65 -225 -40 -76
28 -111 85 -143 232 -31 144 -100 483 -100 492 0 4 11 -8 24 -28 60 -88 200
-140 320 -118 196 35 314 212 262 393 -14 46 -29 69 -74 114 -31 32 -65 62
-76 67 -16 9 23 30 230 124 137 62 254 115 261 118 9 4 10 -3 3 -29 -14 -48
-12 -119 5 -167 18 -53 53 -103 66 -95 5 3 9 2 7 -3 -3 -11 12 -143 18 -166 5
-14 -28 -34 -183 -109 -264 -129 -258 -124 -271 -195 -16 -84 -42 -288 -41
-326 1 -51 7 -21 19 106 7 65 14 116 17 114 2 -3 11 -49 19 -103 39 -260 112
-531 171 -634 104 -182 206 -136 273 123 152 597 31 1897 -202 2161 -50 58
-94 63 -138 16z m-418 -857 c15 -15 28 -30 28 -33 0 -4 -27 -10 -61 -13 -75
-7 -152 -43 -206 -98 l-40 -40 -7 40 c-11 72 22 112 122 152 71 28 130 25 164
-8z m106 -68 c154 -46 246 -217 197 -366 -25 -76 -119 -169 -195 -194 -196
-66 -400 50 -426 242 -8 65 15 147 59 205 33 44 118 102 172 117 48 14 137 12
193 -4z"/>
</g>
</svg>
