<?xml version="1.0" standalone="no"?>
<!DOCTYPE svg PUBLIC "-//W3C//DTD SVG 20010904//EN"
 "http://www.w3.org/TR/2001/REC-SVG-20010904/DTD/svg10.dtd">
<svg version="1.0" xmlns="http://www.w3.org/2000/svg"
 width="135.000000pt" height="256.000000pt" viewBox="0 0 135.000000 256.000000"
 preserveAspectRatio="xMidYMid meet">
<metadata>
Created by potrace 1.16, written by Peter Selinger 2001-2019
</metadata>
<g transform="translate(0.000000,256.000000) scale(0.100000,-0.100000)"
fill="#000000" stroke="none">
<path d="M940 2399 c0 -5 -6 -9 -12 -9 -15 0 -88 -145 -92 -181 -1 -14 -5 -30
-9 -36 -4 -6 -4 -18 -1 -27 3 -9 1 -16 -5 -16 -7 0 -9 -9 -5 -25 4 -16 2 -25
-6 -25 -6 0 -9 -4 -5 -9 3 -6 -1 -62 -10 -126 -8 -64 -15 -151 -16 -193 -1
-87 -10 -128 -27 -124 -7 1 -12 -3 -12 -9 0 -5 -4 -8 -8 -5 -5 3 -21 -4 -38
-15 -45 -29 -77 -24 -126 20 -67 62 -134 65 -255 14 -18 -7 -35 -13 -38 -13
-12 0 -46 -43 -48 -61 -1 -10 -4 -19 -7 -19 -7 0 -5 -93 2 -105 4 -6 -3 -37
-14 -70 -18 -52 -19 -67 -10 -113 6 -29 9 -59 5 -67 -3 -8 0 -15 6 -15 7 0 9
-9 5 -25 -4 -16 -2 -25 6 -25 6 0 9 -4 5 -9 -3 -6 9 -74 27 -153 17 -79 31
-155 30 -170 -1 -16 3 -28 7 -28 5 0 7 -9 4 -20 -3 -12 0 -20 6 -20 7 0 9 -5
6 -10 -13 -21 28 -112 71 -158 24 -25 44 -42 44 -37 0 5 5 4 11 -2 6 -6 18 -9
25 -6 8 3 14 0 14 -6 0 -6 16 -11 35 -11 19 0 35 4 35 8 0 4 15 8 33 8 59 0
198 88 182 115 -4 5 -1 9 5 9 6 0 8 5 5 11 -4 6 -18 -6 -32 -28 -39 -60 -74
-80 -148 -82 -73 -2 -109 12 -148 59 -32 37 -35 50 -92 325 -25 121 -48 229
-52 240 -3 13 9 6 38 -24 63 -63 117 -85 209 -85 96 0 162 28 223 93 111 119
94 295 -37 390 l-49 35 29 12 c16 7 114 51 218 98 104 47 193 86 197 86 4 0 5
-26 2 -59 -6 -69 8 -122 47 -172 21 -27 30 -53 37 -108 11 -87 38 -63 -207
-184 -180 -90 -186 -95 -194 -183 -2 -27 -7 -57 -11 -66 -10 -25 6 -47 17 -22
6 13 7 10 3 -13 -2 -20 0 -33 6 -33 7 0 8 -11 4 -30 -4 -20 -3 -30 5 -30 6 0
9 -8 6 -17 -3 -10 8 -72 24 -137 16 -66 27 -123 24 -128 -3 -4 0 -8 6 -8 7 0
10 -7 6 -15 -3 -8 -1 -15 5 -15 6 0 8 -4 5 -9 -6 -9 59 -175 79 -200 65 -85
104 -99 150 -54 31 32 67 98 58 107 -4 3 -1 6 5 6 6 0 9 7 6 15 -4 8 -1 15 6
15 6 0 9 4 6 8 -3 5 4 42 14 83 18 70 36 189 39 254 1 17 4 71 6 120 15 273 0
594 -36 820 -12 77 -23 149 -24 161 -1 11 -4 25 -8 31 -4 6 -4 18 -1 27 4 9 1
16 -6 16 -7 0 -10 7 -6 15 3 8 -8 59 -24 112 -16 54 -26 102 -23 107 4 5 1 6
-7 1 -10 -6 -12 -4 -7 8 4 10 1 17 -5 17 -6 0 -8 3 -5 6 9 10 -62 142 -92 172
-25 25 -91 40 -91 21z m-395 -774 c36 -35 31 -45 -22 -45 -61 -1 -127 -30
-179 -81 l-41 -40 -6 38 c-11 61 40 115 130 139 70 19 91 17 118 -11z m125
-76 c55 -25 105 -71 132 -123 65 -127 1 -285 -141 -349 -67 -30 -180 -29 -243
2 -53 25 -112 87 -135 139 -23 55 -19 142 10 198 53 104 136 154 257 154 54 0
88 -6 120 -21z"/>
</g>
</svg>
